# xmcd
#
# Track frame offsets:
#	150
#	17472
#	30332
#	47185
#	62507
#	76382
#	93895
#	107172
#	122697
#	135747
#	150350
#	164625
#	185182
#
# Disc length: 2589
#
# Revision: 2
# Processed by: cddbd v1.5.1PL0 Copyright (c) Steve Scherf et al.
# Submitted via: dBpowerAMP V4.0
# Normalized: r1:TRMNUM
#
DISCID=9f0a1b0d
DTITLE=Produced by Joe Watcharin - Event of Love
DYEAR=2005
DGENRE=Jazz
TTITLE0=วันที่เธอ - พีระพัฒน์ เถรว่อง (บี Crescendo)
TTITLE1=เธอเท่านั้น - ญาดา ฉัตรมงคลพร (คาโยะ)
TTITLE2=ปฏิทิน - ปัญญประวีณ บุณยประสาท (ปัญ) 
TTITLE3=เจ็ดปีแล้ว - สุขวิทย์ อุดมสรีลาภ (อู่)
TTITLE4=วันพักผ่อน - อรนิดา วิมลวัฒนาภัณฑ์ (เอ๋ xyz)
TTITLE5=จบไปแล้ว - คณาคำ อภิรดี (พี่บี๋) 
TTITLE6=ยอม  - วรสิทธิ์ ศิริตัน (มิ่ง) 
TTITLE7=เสี'าย - อัฐพร กรชยา (หมูตุ่น) 
TTITLE8=ที่รัก - เอสันติ สุวรรณวลัยกร 
TTITLE9=คอยใครสักคน - ปฏิพล ตั้งจักรวรานนท์ (First) 
TTITLE10=อย่าตัดพ้อ - ปานวาด อภิโช (ลูกปัด) 
TTITLE11=บ้าน - ภาคิน อิศรกุล (พืช)
TTITLE12=วันพักผ่อน  -  Fingerstyle Version
EXTD=
EXTT0=
EXTT1=
EXTT2=
EXTT3=
EXTT4=
EXTT5=
EXTT6=
EXTT7=
EXTT8=
EXTT9=
EXTT10=
EXTT11=
EXTT12=
PLAYORDER=
